<svg xmlns="http://www.w3.org/2000/svg" xmlns:xlink="http://www.w3.org/1999/xlink" width="200" viewBox="0 0 150 149.999998" height="200" preserveAspectRatio="xMidYMid meet"><defs><g></g><clipPath id="9690d8c9f9"><path d="M 9.976562 9.976562 L 140.023438 9.976562 L 140.023438 140.023438 L 9.976562 140.023438 Z M 9.976562 9.976562 " clip-rule="nonzero"></path></clipPath><clipPath id="e7a1c74cce"><path d="M 75 9.976562 C 39.089844 9.976562 9.976562 39.089844 9.976562 75 C 9.976562 110.910156 39.089844 140.023438 75 140.023438 C 110.910156 140.023438 140.023438 110.910156 140.023438 75 C 140.023438 39.089844 110.910156 9.976562 75 9.976562 Z M 75 9.976562 " clip-rule="nonzero"></path></clipPath></defs><g clip-path="url(#9690d8c9f9)"><g clip-path="url(#e7a1c74cce)"><path fill="#99a0b6" d="M 9.976562 9.976562 L 140.023438 9.976562 L 140.023438 140.023438 L 9.976562 140.023438 Z M 9.976562 9.976562 " fill-opacity="1" fill-rule="nonzero"></path></g></g><g fill="#ffffff" fill-opacity="1"><g transform="translate(60.988885, 93.977165)"><g><path d="M 3.09375 0 C 2.53125 0 2.25 -0.28125 2.25 -0.84375 L 2.25 -5.046875 C 2.25 -5.410156 2.398438 -5.757812 2.703125 -6.09375 C 4.066406 -7.46875 5.515625 -8.992188 7.046875 -10.671875 C 8.578125 -12.359375 9.613281 -13.484375 10.15625 -14.046875 C 11.6875 -15.785156 12.832031 -17.050781 13.59375 -17.84375 C 16.632812 -21.21875 18.15625 -23.71875 18.15625 -25.34375 C 18.15625 -26.507812 17.738281 -27.46875 16.90625 -28.21875 C 16.070312 -28.96875 14.988281 -29.34375 13.65625 -29.34375 C 12.320312 -29.34375 11.238281 -28.96875 10.40625 -28.21875 C 9.570312 -27.46875 9.15625 -26.476562 9.15625 -25.25 L 9.15625 -24.25 C 9.15625 -23.6875 8.867188 -23.40625 8.296875 -23.40625 L 2.90625 -23.40625 C 2.332031 -23.40625 2.046875 -23.6875 2.046875 -24.25 L 2.046875 -26.34375 C 2.148438 -28.144531 2.71875 -29.738281 3.75 -31.125 C 4.78125 -32.507812 6.15625 -33.566406 7.875 -34.296875 C 9.59375 -35.035156 11.519531 -35.40625 13.65625 -35.40625 C 16.019531 -35.40625 18.078125 -34.960938 19.828125 -34.078125 C 21.578125 -33.191406 22.925781 -32 23.875 -30.5 C 24.820312 -29 25.296875 -27.332031 25.296875 -25.5 C 25.296875 -24.101562 24.945312 -22.671875 24.25 -21.203125 C 23.550781 -19.734375 22.5 -18.148438 21.09375 -16.453125 C 19.757812 -14.816406 17.460938 -12.300781 14.203125 -8.90625 C 14.171875 -8.863281 13.382812 -8.03125 11.84375 -6.40625 C 11.75 -6.332031 11.71875 -6.253906 11.75 -6.171875 C 11.78125 -6.085938 11.863281 -6.046875 12 -6.046875 L 25.09375 -6.046875 C 25.664062 -6.046875 25.953125 -5.765625 25.953125 -5.203125 L 25.953125 -0.84375 C 25.953125 -0.28125 25.664062 0 25.09375 0 Z M 3.09375 0 "></path></g></g></g></svg>