<svg xmlns="http://www.w3.org/2000/svg" xmlns:xlink="http://www.w3.org/1999/xlink" width="200" viewBox="0 0 150 149.999998" height="200" preserveAspectRatio="xMidYMid meet"><defs><g></g><clipPath id="9015340595"><path d="M 9.976562 9.976562 L 140.023438 9.976562 L 140.023438 140.023438 L 9.976562 140.023438 Z M 9.976562 9.976562 " clip-rule="nonzero"></path></clipPath><clipPath id="e377d57c71"><path d="M 75 9.976562 C 39.089844 9.976562 9.976562 39.089844 9.976562 75 C 9.976562 110.910156 39.089844 140.023438 75 140.023438 C 110.910156 140.023438 140.023438 110.910156 140.023438 75 C 140.023438 39.089844 110.910156 9.976562 75 9.976562 Z M 75 9.976562 " clip-rule="nonzero"></path></clipPath></defs><g clip-path="url(#9015340595)"><g clip-path="url(#e377d57c71)"><path fill="#05c386" d="M 9.976562 9.976562 L 140.023438 9.976562 L 140.023438 140.023438 L 9.976562 140.023438 Z M 9.976562 9.976562 " fill-opacity="1" fill-rule="nonzero"></path></g></g><g fill="#ffffff" fill-opacity="1"><g transform="translate(66.508416, 93.977165)"><g><path d="M 6.65625 -34.796875 C 6.945312 -34.929688 7.296875 -35 7.703125 -35 L 13.34375 -35 C 13.914062 -35 14.203125 -34.71875 14.203125 -34.15625 L 14.203125 -0.84375 C 14.203125 -0.28125 13.914062 0 13.34375 0 L 8 0 C 7.4375 0 7.15625 -0.28125 7.15625 -0.84375 L 7.15625 -28.09375 C 7.15625 -28.195312 7.117188 -28.28125 7.046875 -28.34375 C 6.984375 -28.414062 6.898438 -28.4375 6.796875 -28.40625 L 2.40625 -27.5 L 2.203125 -27.5 C 1.703125 -27.5 1.453125 -27.75 1.453125 -28.25 L 1.453125 -32.046875 C 1.453125 -32.546875 1.664062 -32.863281 2.09375 -33 Z M 6.65625 -34.796875 "></path></g></g></g></svg>