<svg xmlns="http://www.w3.org/2000/svg" xmlns:xlink="http://www.w3.org/1999/xlink" width="200" viewBox="0 0 150 149.999998" height="200" preserveAspectRatio="xMidYMid meet"><defs><g></g><clipPath id="e23caaa627"><path d="M 9.976562 9.976562 L 140.023438 9.976562 L 140.023438 140.023438 L 9.976562 140.023438 Z M 9.976562 9.976562 " clip-rule="nonzero"></path></clipPath><clipPath id="c6eeedbc40"><path d="M 75 9.976562 C 39.089844 9.976562 9.976562 39.089844 9.976562 75 C 9.976562 110.910156 39.089844 140.023438 75 140.023438 C 110.910156 140.023438 140.023438 110.910156 140.023438 75 C 140.023438 39.089844 110.910156 9.976562 75 9.976562 Z M 75 9.976562 " clip-rule="nonzero"></path></clipPath></defs><g clip-path="url(#e23caaa627)"><g clip-path="url(#c6eeedbc40)"><path fill="#05c386" d="M 9.976562 9.976562 L 140.023438 9.976562 L 140.023438 140.023438 L 9.976562 140.023438 Z M 9.976562 9.976562 " fill-opacity="1" fill-rule="nonzero"></path></g></g><g fill="#ffffff" fill-opacity="1"><g transform="translate(61.492792, 93.977165)"><g><path d="M 23.84375 -16.703125 C 24.507812 -15.171875 24.84375 -13.40625 24.84375 -11.40625 C 24.84375 -9.632812 24.546875 -7.96875 23.953125 -6.40625 C 23.117188 -4.269531 21.765625 -2.597656 19.890625 -1.390625 C 18.023438 -0.191406 15.8125 0.40625 13.25 0.40625 C 10.71875 0.40625 8.492188 -0.226562 6.578125 -1.5 C 4.660156 -2.769531 3.285156 -4.488281 2.453125 -6.65625 C 2.046875 -7.6875 1.78125 -9 1.65625 -10.59375 C 1.65625 -11.164062 1.9375 -11.453125 2.5 -11.453125 L 7.90625 -11.453125 C 8.4375 -11.453125 8.734375 -11.164062 8.796875 -10.59375 C 8.867188 -9.800781 9.035156 -9.070312 9.296875 -8.40625 C 9.597656 -7.53125 10.085938 -6.851562 10.765625 -6.375 C 11.453125 -5.894531 12.265625 -5.65625 13.203125 -5.65625 C 15.066406 -5.65625 16.347656 -6.46875 17.046875 -8.09375 C 17.515625 -9.09375 17.75 -10.257812 17.75 -11.59375 C 17.75 -13.03125 17.484375 -14.316406 16.953125 -15.453125 C 16.210938 -17.015625 14.945312 -17.796875 13.15625 -17.796875 C 12.550781 -17.796875 11.78125 -17.476562 10.84375 -16.84375 C 10.644531 -16.75 10.476562 -16.703125 10.34375 -16.703125 C 10.082031 -16.703125 9.851562 -16.816406 9.65625 -17.046875 L 7 -20.59375 C 6.863281 -20.757812 6.796875 -20.960938 6.796875 -21.203125 C 6.796875 -21.398438 6.894531 -21.597656 7.09375 -21.796875 L 14.90625 -28.59375 C 15 -28.664062 15.03125 -28.742188 15 -28.828125 C 14.96875 -28.910156 14.882812 -28.953125 14.75 -28.953125 L 3.203125 -28.953125 C 2.628906 -28.953125 2.34375 -29.234375 2.34375 -29.796875 L 2.34375 -34.15625 C 2.34375 -34.71875 2.628906 -35 3.203125 -35 L 23.546875 -35 C 24.117188 -35 24.40625 -34.71875 24.40625 -34.15625 L 24.40625 -29.25 C 24.40625 -28.851562 24.253906 -28.503906 23.953125 -28.203125 L 17.40625 -22.25 C 17.195312 -22.050781 17.257812 -21.914062 17.59375 -21.84375 C 20.5 -21.28125 22.582031 -19.566406 23.84375 -16.703125 Z M 23.84375 -16.703125 "></path></g></g></g></svg>