<svg xmlns="http://www.w3.org/2000/svg" xmlns:xlink="http://www.w3.org/1999/xlink" width="200" viewBox="0 0 150 149.999998" height="200" preserveAspectRatio="xMidYMid meet"><defs><g></g><clipPath id="2590c29403"><path d="M 9.976562 9.976562 L 140.023438 9.976562 L 140.023438 140.023438 L 9.976562 140.023438 Z M 9.976562 9.976562 " clip-rule="nonzero"></path></clipPath><clipPath id="dfed53919b"><path d="M 75 9.976562 C 39.089844 9.976562 9.976562 39.089844 9.976562 75 C 9.976562 110.910156 39.089844 140.023438 75 140.023438 C 110.910156 140.023438 140.023438 110.910156 140.023438 75 C 140.023438 39.089844 110.910156 9.976562 75 9.976562 Z M 75 9.976562 " clip-rule="nonzero"></path></clipPath></defs><g clip-path="url(#2590c29403)"><g clip-path="url(#dfed53919b)"><path fill="#05c386" d="M 9.976562 9.976562 L 140.023438 9.976562 L 140.023438 140.023438 L 9.976562 140.023438 Z M 9.976562 9.976562 " fill-opacity="1" fill-rule="nonzero"></path></g></g><g fill="#ffffff" fill-opacity="1"><g transform="translate(59.863885, 93.977165)"><g><path d="M 27.046875 -15.25 C 27.617188 -15.25 27.90625 -14.96875 27.90625 -14.40625 L 27.90625 -9.84375 C 27.90625 -9.28125 27.617188 -9 27.046875 -9 L 25.25 -9 C 25.050781 -9 24.953125 -8.898438 24.953125 -8.703125 L 24.953125 -0.84375 C 24.953125 -0.28125 24.664062 0 24.09375 0 L 18.75 0 C 18.1875 0 17.90625 -0.28125 17.90625 -0.84375 L 17.90625 -8.703125 C 17.90625 -8.898438 17.800781 -9 17.59375 -9 L 2.5 -9 C 1.9375 -9 1.65625 -9.28125 1.65625 -9.84375 L 1.65625 -13.453125 C 1.65625 -13.785156 1.71875 -14.132812 1.84375 -14.5 L 10.75 -34.34375 C 10.976562 -34.78125 11.3125 -35 11.75 -35 L 17.453125 -35 C 17.953125 -35 18.203125 -34.800781 18.203125 -34.40625 L 18.09375 -34 L 9.90625 -15.59375 C 9.800781 -15.363281 9.882812 -15.25 10.15625 -15.25 L 17.59375 -15.25 C 17.800781 -15.25 17.90625 -15.347656 17.90625 -15.546875 L 17.90625 -21.453125 C 17.90625 -22.015625 18.1875 -22.296875 18.75 -22.296875 L 24.09375 -22.296875 C 24.664062 -22.296875 24.953125 -22.015625 24.953125 -21.453125 L 24.953125 -15.546875 C 24.953125 -15.347656 25.050781 -15.25 25.25 -15.25 Z M 27.046875 -15.25 "></path></g></g></g></svg>