<svg xmlns="http://www.w3.org/2000/svg" xmlns:xlink="http://www.w3.org/1999/xlink" width="200" viewBox="0 0 150 149.999998" height="200" preserveAspectRatio="xMidYMid meet"><defs><g></g><clipPath id="3b93170768"><path d="M 9.976562 9.976562 L 140.023438 9.976562 L 140.023438 140.023438 L 9.976562 140.023438 Z M 9.976562 9.976562 " clip-rule="nonzero"></path></clipPath><clipPath id="afc43c0930"><path d="M 75 9.976562 C 39.089844 9.976562 9.976562 39.089844 9.976562 75 C 9.976562 110.910156 39.089844 140.023438 75 140.023438 C 110.910156 140.023438 140.023438 110.910156 140.023438 75 C 140.023438 39.089844 110.910156 9.976562 75 9.976562 Z M 75 9.976562 " clip-rule="nonzero"></path></clipPath></defs><g clip-path="url(#3b93170768)"><g clip-path="url(#afc43c0930)"><path fill="#05c386" d="M 9.976562 9.976562 L 140.023438 9.976562 L 140.023438 140.023438 L 9.976562 140.023438 Z M 9.976562 9.976562 " fill-opacity="1" fill-rule="nonzero"></path></g></g><g fill="#ffffff" fill-opacity="1"><g transform="translate(61.563104, 93.977165)"><g><path d="M 24 -16.953125 C 24.800781 -15.453125 25.203125 -13.535156 25.203125 -11.203125 C 25.203125 -9.265625 24.882812 -7.53125 24.25 -6 C 23.382812 -4.03125 22.035156 -2.476562 20.203125 -1.34375 C 18.367188 -0.21875 16.203125 0.34375 13.703125 0.34375 C 11.128906 0.34375 8.910156 -0.242188 7.046875 -1.421875 C 5.179688 -2.609375 3.832031 -4.25 3 -6.34375 C 2.394531 -7.8125 2.09375 -9.445312 2.09375 -11.25 L 2.09375 -26.296875 C 2.09375 -28.097656 2.566406 -29.691406 3.515625 -31.078125 C 4.472656 -32.460938 5.800781 -33.53125 7.5 -34.28125 C 9.195312 -35.03125 11.144531 -35.40625 13.34375 -35.40625 C 15.507812 -35.40625 17.425781 -35.03125 19.09375 -34.28125 C 20.757812 -33.53125 22.050781 -32.476562 22.96875 -31.125 C 23.882812 -29.769531 24.34375 -28.210938 24.34375 -26.453125 L 24.34375 -25.296875 C 24.34375 -24.734375 24.0625 -24.453125 23.5 -24.453125 L 18.15625 -24.453125 C 17.882812 -24.453125 17.671875 -24.5 17.515625 -24.59375 C 17.367188 -24.695312 17.296875 -24.832031 17.296875 -25 L 17.296875 -25.5 C 17.296875 -26.601562 16.925781 -27.519531 16.1875 -28.25 C 15.457031 -28.976562 14.507812 -29.34375 13.34375 -29.34375 C 12.113281 -29.34375 11.109375 -28.96875 10.328125 -28.21875 C 9.546875 -27.46875 9.15625 -26.507812 9.15625 -25.34375 L 9.15625 -20.75 C 9.15625 -20.613281 9.1875 -20.53125 9.25 -20.5 C 9.3125 -20.46875 9.394531 -20.5 9.5 -20.59375 C 10.894531 -21.726562 12.695312 -22.296875 14.90625 -22.296875 C 16.90625 -22.296875 18.695312 -21.835938 20.28125 -20.921875 C 21.863281 -20.003906 23.101562 -18.679688 24 -16.953125 Z M 17.40625 -7.953125 C 17.90625 -8.816406 18.15625 -9.863281 18.15625 -11.09375 C 18.15625 -12.425781 17.882812 -13.53125 17.34375 -14.40625 C 16.507812 -15.738281 15.296875 -16.40625 13.703125 -16.40625 C 11.898438 -16.40625 10.648438 -15.71875 9.953125 -14.34375 C 9.453125 -13.476562 9.203125 -12.363281 9.203125 -11 C 9.203125 -9.800781 9.414062 -8.785156 9.84375 -7.953125 C 10.582031 -6.484375 11.851562 -5.75 13.65625 -5.75 C 15.382812 -5.75 16.632812 -6.484375 17.40625 -7.953125 Z M 17.40625 -7.953125 "></path></g></g></g></svg>