<svg xmlns="http://www.w3.org/2000/svg" xmlns:xlink="http://www.w3.org/1999/xlink" width="200" viewBox="0 0 150 149.999998" height="200" preserveAspectRatio="xMidYMid meet"><defs><clipPath id="891c17da8e"><path d="M 12.527344 12.527344 L 134.777344 12.527344 L 134.777344 134.777344 L 12.527344 134.777344 Z M 12.527344 12.527344 " clip-rule="nonzero"></path></clipPath></defs><path fill="#1b4366" d="M 20.679688 20.679688 L 24.753906 20.679688 L 24.753906 24.753906 L 20.679688 24.753906 Z M 20.679688 20.679688 " fill-opacity="1" fill-rule="nonzero"></path><path fill="#1b4366" d="M 28.828125 20.679688 L 32.902344 20.679688 L 32.902344 24.753906 L 28.828125 24.753906 Z M 28.828125 20.679688 " fill-opacity="1" fill-rule="nonzero"></path><path fill="#1b4366" d="M 36.976562 20.679688 L 41.054688 20.679688 L 41.054688 24.753906 L 36.976562 24.753906 Z M 36.976562 20.679688 " fill-opacity="1" fill-rule="nonzero"></path><g clip-path="url(#891c17da8e)"><path fill="#1b4366" d="M 128.664062 12.527344 L 18.640625 12.527344 C 15.277344 12.527344 12.527344 15.277344 12.527344 18.640625 L 12.527344 128.664062 C 12.527344 132.027344 15.277344 134.777344 18.640625 134.777344 L 128.664062 134.777344 C 132.027344 134.777344 134.777344 132.027344 134.777344 128.664062 L 134.777344 18.640625 C 134.777344 15.277344 132.027344 12.527344 128.664062 12.527344 Z M 130.703125 20.679688 L 45.128906 20.679688 L 45.128906 24.753906 L 130.703125 24.753906 L 130.703125 128.664062 C 130.703125 129.785156 129.785156 130.703125 128.664062 130.703125 L 18.640625 130.703125 C 17.519531 130.703125 16.601562 129.785156 16.601562 128.664062 L 16.601562 18.640625 C 16.601562 17.519531 17.519531 16.601562 18.640625 16.601562 L 128.664062 16.601562 C 129.785156 16.601562 130.703125 17.519531 130.703125 18.640625 Z M 130.703125 20.679688 " fill-opacity="1" fill-rule="nonzero"></path></g><path fill="#1b4366" d="M 51.242188 32.902344 L 96.066406 32.902344 L 96.066406 36.976562 L 51.242188 36.976562 Z M 51.242188 32.902344 " fill-opacity="1" fill-rule="nonzero"></path><path fill="#1b4366" d="M 24.753906 51.242188 L 24.753906 63.464844 C 24.753906 64.585938 25.671875 65.503906 26.789062 65.503906 L 87.914062 65.503906 L 87.914062 61.429688 L 28.828125 61.429688 L 28.828125 53.277344 L 118.476562 53.277344 L 118.476562 61.429688 L 112.367188 61.429688 L 112.367188 65.503906 L 120.515625 65.503906 C 121.636719 65.503906 122.554688 64.585938 122.554688 63.464844 L 122.554688 51.242188 C 122.554688 50.121094 121.636719 49.203125 120.515625 49.203125 L 26.789062 49.203125 C 25.671875 49.203125 24.753906 50.121094 24.753906 51.242188 Z M 24.753906 51.242188 " fill-opacity="1" fill-rule="nonzero"></path><path fill="#1b4366" d="M 24.753906 41.054688 L 43.089844 41.054688 L 43.089844 45.128906 L 24.753906 45.128906 Z M 24.753906 41.054688 " fill-opacity="1" fill-rule="nonzero"></path><path fill="#1b4366" d="M 24.753906 71.617188 L 53.277344 71.617188 L 53.277344 75.691406 L 24.753906 75.691406 Z M 24.753906 71.617188 " fill-opacity="1" fill-rule="nonzero"></path><path fill="#1b4366" d="M 120.515625 79.765625 L 114.402344 79.765625 L 114.402344 83.839844 L 118.476562 83.839844 L 118.476562 91.992188 L 107.882812 91.992188 L 110.328125 91.097656 C 111.371094 90.71875 111.933594 89.546875 111.550781 88.476562 L 106.839844 75.613281 L 112.59375 75.003906 C 113.433594 74.902344 114.125 74.316406 114.351562 73.5 C 114.582031 72.683594 114.277344 71.820312 113.589844 71.335938 L 95.785156 58.347656 C 95.226562 57.9375 94.511719 57.835938 93.875 58.09375 C 93.238281 58.320312 92.753906 58.855469 92.601562 59.519531 L 87.457031 80.9375 C 87.253906 81.753906 87.585938 82.617188 88.273438 83.101562 C 88.960938 83.585938 89.875 83.585938 90.566406 83.101562 L 95.351562 79.84375 L 99.808594 91.992188 L 28.828125 91.992188 L 28.828125 83.839844 L 83.839844 83.839844 L 83.839844 79.765625 L 26.789062 79.765625 C 25.671875 79.765625 24.753906 80.683594 24.753906 81.804688 L 24.753906 94.027344 C 24.753906 95.148438 25.671875 96.066406 26.789062 96.066406 L 120.515625 96.066406 C 121.636719 96.066406 122.554688 95.148438 122.554688 94.027344 L 122.554688 81.804688 C 122.554688 80.683594 121.636719 79.765625 120.515625 79.765625 Z M 96.984375 74.75 C 96.777344 74.671875 96.574219 74.648438 96.371094 74.648438 C 95.964844 74.648438 95.554688 74.773438 95.226562 75.003906 L 92.628906 76.761719 L 95.835938 63.441406 L 106.914062 71.539062 L 103.808594 71.871094 C 103.171875 71.945312 102.636719 72.277344 102.304688 72.8125 C 101.972656 73.347656 101.898438 74.011719 102.128906 74.59375 L 107.042969 87.992188 L 103.222656 89.394531 L 98.308594 75.996094 C 98.050781 75.410156 97.59375 74.953125 96.984375 74.75 Z M 96.984375 74.75 " fill-opacity="1" fill-rule="nonzero"></path><path fill="#1b4366" d="M 24.753906 102.179688 L 53.277344 102.179688 L 53.277344 106.253906 L 24.753906 106.253906 Z M 24.753906 102.179688 " fill-opacity="1" fill-rule="nonzero"></path><path fill="#1b4366" d="M 120.515625 110.328125 L 26.789062 110.328125 C 25.671875 110.328125 24.753906 111.246094 24.753906 112.367188 L 24.753906 124.589844 C 24.753906 125.710938 25.671875 126.628906 26.789062 126.628906 L 120.515625 126.628906 C 121.636719 126.628906 122.554688 125.710938 122.554688 124.589844 L 122.554688 112.367188 C 122.554688 111.246094 121.636719 110.328125 120.515625 110.328125 Z M 118.476562 122.554688 L 28.828125 122.554688 L 28.828125 114.402344 L 118.476562 114.402344 Z M 118.476562 122.554688 " fill-opacity="1" fill-rule="nonzero"></path></svg>