<svg xmlns="http://www.w3.org/2000/svg" xmlns:xlink="http://www.w3.org/1999/xlink" width="200" viewBox="0 0 150 149.999998" height="200" preserveAspectRatio="xMidYMid meet"><defs><clipPath id="74f1be31c1"><path d="M 15 18.054688 L 135 18.054688 L 135 130 L 15 130 Z M 15 18.054688 " clip-rule="nonzero"></path></clipPath></defs><g clip-path="url(#74f1be31c1)"><path fill="#1b4366" d="M 15.992188 57.429688 L 53.542969 79.632812 L 52.574219 96.945312 C 52.570312 97.210938 52.621094 97.464844 52.71875 97.710938 C 52.8125 97.957031 52.953125 98.175781 53.132812 98.367188 C 53.316406 98.5625 53.523438 98.714844 53.761719 98.824219 C 54.003906 98.9375 54.253906 99 54.515625 99.015625 L 69.992188 99.371094 L 93.0625 128.488281 C 93.46875 128.988281 93.992188 129.246094 94.632812 129.253906 L 94.964844 129.253906 C 95.320312 129.1875 95.636719 129.039062 95.910156 128.804688 C 96.1875 128.574219 96.390625 128.289062 96.515625 127.949219 L 134.875 20.648438 C 134.886719 20.550781 134.886719 20.453125 134.875 20.355469 C 134.886719 20.273438 134.886719 20.191406 134.875 20.109375 C 134.917969 19.875 134.917969 19.640625 134.875 19.402344 C 134.824219 19.152344 134.71875 18.925781 134.566406 18.722656 L 134.378906 18.511719 L 134.171875 18.304688 L 134.046875 18.304688 L 133.78125 18.183594 C 133.648438 18.121094 133.507812 18.082031 133.367188 18.058594 L 133.097656 18.058594 C 132.902344 18.015625 132.710938 18.015625 132.515625 18.058594 L 132.351562 18.058594 L 16.488281 53.765625 C 16.117188 53.890625 15.808594 54.101562 15.558594 54.40625 C 15.308594 54.707031 15.15625 55.054688 15.101562 55.441406 C 15.050781 55.832031 15.105469 56.203125 15.265625 56.5625 C 15.425781 56.921875 15.667969 57.210938 15.992188 57.429688 Z M 56.667969 95.101562 L 57.332031 83.484375 L 66.722656 95.351562 Z M 93.910156 123.105469 L 59.089844 79.28125 L 128.792969 25.699219 Z M 122.875 25.160156 L 56.109375 76.523438 L 21.910156 56.289062 Z M 122.875 25.160156 " fill-opacity="1" fill-rule="nonzero"></path></g><path fill="#1b4366" d="M 35.070312 111.320312 L 35.503906 111.320312 C 35.964844 111.304688 36.375 111.15625 36.734375 110.867188 C 37.09375 110.582031 37.332031 110.214844 37.449219 109.765625 C 39.015625 103.019531 41.949219 96.929688 46.242188 91.5 C 46.398438 91.296875 46.515625 91.070312 46.589844 90.824219 C 46.664062 90.578125 46.691406 90.328125 46.671875 90.070312 C 46.652344 89.816406 46.589844 89.570312 46.480469 89.339844 C 46.367188 89.105469 46.222656 88.902344 46.035156 88.722656 C 45.824219 88.566406 45.59375 88.453125 45.339844 88.382812 C 45.085938 88.3125 44.828125 88.292969 44.566406 88.320312 C 44.304688 88.351562 44.058594 88.425781 43.824219 88.550781 C 43.59375 88.671875 43.390625 88.835938 43.21875 89.035156 C 40.902344 91.949219 38.933594 95.085938 37.3125 98.441406 C 35.691406 101.792969 34.460938 105.285156 33.621094 108.917969 C 33.570312 109.171875 33.566406 109.425781 33.609375 109.683594 C 33.652344 109.9375 33.742188 110.179688 33.875 110.402344 C 34.011719 110.625 34.179688 110.8125 34.386719 110.972656 C 34.59375 111.132812 34.820312 111.246094 35.070312 111.320312 Z M 35.070312 111.320312 " fill-opacity="1" fill-rule="nonzero"></path><path fill="#1b4366" d="M 32.296875 118.878906 L 32.296875 129.234375 C 32.253906 129.386719 32.230469 129.542969 32.226562 129.703125 C 32.21875 129.863281 32.230469 130.019531 32.261719 130.175781 C 32.292969 130.332031 32.339844 130.484375 32.40625 130.628906 C 32.472656 130.773438 32.554688 130.910156 32.648438 131.035156 C 32.746094 131.160156 32.855469 131.277344 32.976562 131.375 C 33.101562 131.476562 33.234375 131.5625 33.375 131.632812 C 33.519531 131.703125 33.667969 131.757812 33.824219 131.792969 C 33.976562 131.832031 34.132812 131.847656 34.292969 131.847656 C 34.453125 131.847656 34.609375 131.832031 34.765625 131.792969 C 34.917969 131.757812 35.066406 131.703125 35.210938 131.632812 C 35.351562 131.5625 35.484375 131.476562 35.609375 131.375 C 35.730469 131.277344 35.839844 131.160156 35.9375 131.035156 C 36.035156 130.910156 36.113281 130.773438 36.179688 130.628906 C 36.246094 130.484375 36.292969 130.332031 36.324219 130.175781 C 36.355469 130.019531 36.367188 129.863281 36.359375 129.703125 C 36.355469 129.542969 36.332031 129.386719 36.289062 129.234375 L 36.289062 118.878906 C 36.167969 118.429688 35.921875 118.058594 35.550781 117.777344 C 35.179688 117.492188 34.761719 117.351562 34.292969 117.351562 C 33.828125 117.351562 33.40625 117.492188 33.035156 117.777344 C 32.664062 118.058594 32.417969 118.429688 32.296875 118.878906 Z M 32.296875 118.878906 " fill-opacity="1" fill-rule="nonzero"></path></svg>