<svg xmlns="http://www.w3.org/2000/svg" xmlns:xlink="http://www.w3.org/1999/xlink" width="200" viewBox="0 0 150 149.999998" height="200" preserveAspectRatio="xMidYMid meet"><defs><clipPath id="0ebd751b01"><path d="M 13 58 L 137.324219 58 L 137.324219 135 L 13 135 Z M 13 58 " clip-rule="nonzero"></path></clipPath><clipPath id="d9b5016892"><path d="M 13 87 L 137.324219 87 L 137.324219 135 L 13 135 Z M 13 87 " clip-rule="nonzero"></path></clipPath><clipPath id="0ba53b1115"><path d="M 107 39 L 137.324219 39 L 137.324219 62 L 107 62 Z M 107 39 " clip-rule="nonzero"></path></clipPath><clipPath id="5757b4d8e7"><path d="M 83 58 L 137.324219 58 L 137.324219 99 L 83 99 Z M 83 58 " clip-rule="nonzero"></path></clipPath></defs><g clip-path="url(#0ebd751b01)"><path fill="#1b4366" d="M 135.148438 134.75 L 15 134.75 C 13.964844 134.75 13.121094 133.910156 13.121094 132.875 L 13.121094 59.921875 C 13.121094 58.886719 13.964844 58.046875 15 58.046875 C 16.039062 58.046875 16.878906 58.886719 16.878906 59.921875 L 16.878906 131 L 133.269531 131 L 133.269531 59.921875 C 133.269531 58.886719 134.109375 58.046875 135.148438 58.046875 C 136.183594 58.046875 137.023438 58.886719 137.023438 59.921875 L 137.023438 132.875 C 137.023438 133.910156 136.183594 134.75 135.148438 134.75 " fill-opacity="1" fill-rule="nonzero"></path></g><g clip-path="url(#d9b5016892)"><path fill="#1b4366" d="M 135.144531 134.75 C 134.761719 134.75 134.371094 134.632812 134.039062 134.390625 L 75.074219 91.246094 L 16.109375 134.390625 C 15.265625 135.003906 14.097656 134.8125 13.484375 133.984375 C 12.875 133.148438 13.054688 131.976562 13.890625 131.363281 L 73.964844 87.410156 C 74.625 86.925781 75.523438 86.925781 76.183594 87.410156 L 136.253906 131.363281 C 137.09375 131.976562 137.273438 133.148438 136.664062 133.984375 C 136.292969 134.484375 135.722656 134.75 135.144531 134.75 " fill-opacity="1" fill-rule="nonzero"></path></g><g clip-path="url(#0ba53b1115)"><path fill="#1b4366" d="M 135.144531 61.800781 C 134.761719 61.800781 134.371094 61.683594 134.039062 61.4375 L 108.355469 42.648438 C 107.519531 42.035156 107.339844 40.863281 107.949219 40.027344 C 108.5625 39.195312 109.734375 39.003906 110.574219 39.621094 L 136.253906 58.410156 C 137.09375 59.023438 137.273438 60.199219 136.664062 61.03125 C 136.292969 61.535156 135.722656 61.800781 135.144531 61.800781 " fill-opacity="1" fill-rule="nonzero"></path></g><path fill="#1b4366" d="M 15.003906 61.796875 C 14.421875 61.796875 13.855469 61.53125 13.484375 61.03125 C 12.875 60.195312 13.054688 59.023438 13.890625 58.410156 L 38.820312 40.171875 C 39.65625 39.558594 40.832031 39.746094 41.445312 40.578125 C 42.054688 41.414062 41.875 42.585938 41.039062 43.199219 L 16.109375 61.4375 C 15.773438 61.679688 15.386719 61.796875 15.003906 61.796875 " fill-opacity="1" fill-rule="nonzero"></path><g clip-path="url(#5757b4d8e7)"><path fill="#1b4366" d="M 85.292969 98.273438 C 84.714844 98.273438 84.144531 98.007812 83.777344 97.507812 C 83.164062 96.671875 83.34375 95.5 84.179688 94.882812 L 134.039062 58.410156 C 134.878906 57.796875 136.050781 57.980469 136.664062 58.816406 C 137.273438 59.648438 137.09375 60.824219 136.253906 61.4375 L 86.402344 97.914062 C 86.066406 98.15625 85.675781 98.273438 85.292969 98.273438 " fill-opacity="1" fill-rule="nonzero"></path></g><path fill="#1b4366" d="M 64.855469 98.273438 C 64.46875 98.273438 64.082031 98.15625 63.746094 97.914062 L 13.890625 61.4375 C 13.054688 60.824219 12.875 59.648438 13.484375 58.816406 C 14.097656 57.980469 15.265625 57.796875 16.109375 58.410156 L 65.964844 94.882812 C 66.800781 95.496094 66.984375 96.671875 66.371094 97.507812 C 66.003906 98.007812 65.433594 98.273438 64.855469 98.273438 " fill-opacity="1" fill-rule="nonzero"></path><path fill="#1b4366" d="M 108.78125 81.089844 C 107.746094 81.089844 106.90625 80.25 106.90625 79.214844 L 106.90625 18.75 L 41.804688 18.75 L 41.804688 77.980469 C 41.804688 79.015625 40.964844 79.855469 39.929688 79.855469 C 38.890625 79.855469 38.050781 79.015625 38.050781 77.980469 L 38.050781 16.875 C 38.050781 15.839844 38.890625 15 39.929688 15 L 108.78125 15 C 109.820312 15 110.660156 15.839844 110.660156 16.875 L 110.660156 79.214844 C 110.660156 80.25 109.820312 81.089844 108.78125 81.089844 " fill-opacity="1" fill-rule="nonzero"></path><path fill="#1b4366" d="M 75.304688 46.65625 C 72.03125 46.65625 69.367188 49.316406 69.367188 52.585938 C 69.367188 55.855469 72.03125 58.511719 75.304688 58.511719 C 78.578125 58.511719 81.238281 55.855469 81.238281 52.585938 C 81.238281 49.316406 78.578125 46.65625 75.304688 46.65625 Z M 75.304688 62.261719 C 69.960938 62.261719 65.609375 57.921875 65.609375 52.585938 C 65.609375 47.246094 69.960938 42.90625 75.304688 42.90625 C 80.648438 42.90625 84.992188 47.246094 84.992188 52.585938 C 84.992188 57.921875 80.648438 62.261719 75.304688 62.261719 " fill-opacity="1" fill-rule="nonzero"></path><path fill="#1b4366" d="M 74.355469 75.734375 C 61.828125 75.734375 51.636719 65.554688 51.636719 53.042969 C 51.636719 40.53125 61.828125 30.351562 74.355469 30.351562 C 86.882812 30.351562 97.074219 40.53125 97.074219 53.042969 L 97.074219 54.910156 C 97.074219 59.21875 93.5625 62.722656 89.25 62.722656 C 84.933594 62.722656 81.425781 59.21875 81.425781 54.910156 L 81.425781 45.242188 C 81.425781 44.207031 82.265625 43.367188 83.300781 43.367188 C 84.339844 43.367188 85.179688 44.207031 85.179688 45.242188 L 85.179688 54.910156 C 85.179688 57.148438 87.003906 58.972656 89.25 58.972656 C 91.492188 58.972656 93.320312 57.148438 93.320312 54.910156 L 93.320312 53.042969 C 93.320312 42.601562 84.8125 34.101562 74.355469 34.101562 C 63.898438 34.101562 55.390625 42.601562 55.390625 53.042969 C 55.390625 63.488281 63.898438 71.984375 74.355469 71.984375 C 78.09375 71.984375 81.707031 70.898438 84.804688 68.851562 C 85.667969 68.273438 86.835938 68.515625 87.40625 69.378906 C 87.980469 70.242188 87.742188 71.40625 86.878906 71.976562 C 83.160156 74.433594 78.832031 75.734375 74.355469 75.734375 " fill-opacity="1" fill-rule="nonzero"></path></svg>