<svg xmlns="http://www.w3.org/2000/svg" xmlns:xlink="http://www.w3.org/1999/xlink" width="200" viewBox="0 0 150 149.999998" height="200" preserveAspectRatio="xMidYMid meet"><defs><clipPath id="89a61af824"><path d="M 15 12.191406 L 135 12.191406 L 135 132.191406 L 15 132.191406 Z M 15 12.191406 " clip-rule="nonzero"></path></clipPath></defs><path fill="#34476e" d="M 41.898438 63.914062 L 91.550781 63.914062 C 92.695312 63.914062 93.621094 62.988281 93.621094 61.84375 C 93.621094 60.703125 92.695312 59.777344 91.550781 59.777344 L 41.898438 59.777344 C 40.753906 59.777344 39.828125 60.703125 39.828125 61.84375 C 39.828125 62.988281 40.753906 63.914062 41.898438 63.914062 Z M 41.898438 63.914062 " fill-opacity="1" fill-rule="nonzero"></path><path fill="#34476e" d="M 41.898438 74.257812 L 83.277344 74.257812 C 84.417969 74.257812 85.34375 73.332031 85.34375 72.191406 C 85.34375 71.046875 84.417969 70.121094 83.277344 70.121094 L 41.898438 70.121094 C 40.753906 70.121094 39.828125 71.046875 39.828125 72.191406 C 39.828125 73.332031 40.753906 74.257812 41.898438 74.257812 Z M 41.898438 74.257812 " fill-opacity="1" fill-rule="nonzero"></path><path fill="#34476e" d="M 41.898438 53.570312 L 72.929688 53.570312 C 74.074219 53.570312 75 52.644531 75 51.5 C 75 50.355469 74.074219 49.429688 72.929688 49.429688 L 41.898438 49.429688 C 40.753906 49.429688 39.828125 50.355469 39.828125 51.5 C 39.828125 52.644531 40.753906 53.570312 41.898438 53.570312 Z M 41.898438 53.570312 " fill-opacity="1" fill-rule="nonzero"></path><path fill="#34476e" d="M 41.898438 105.292969 L 66.722656 105.292969 C 67.867188 105.292969 68.792969 104.367188 68.792969 103.222656 C 68.792969 102.082031 67.867188 101.15625 66.722656 101.15625 L 41.898438 101.15625 C 40.753906 101.15625 39.828125 102.082031 39.828125 103.222656 C 39.828125 104.367188 40.753906 105.292969 41.898438 105.292969 Z M 41.898438 105.292969 " fill-opacity="1" fill-rule="nonzero"></path><path fill="#34476e" d="M 41.898438 94.949219 L 68.792969 94.949219 C 69.9375 94.949219 70.863281 94.023438 70.863281 92.878906 C 70.863281 91.734375 69.9375 90.808594 68.792969 90.808594 L 41.898438 90.808594 C 40.753906 90.808594 39.828125 91.734375 39.828125 92.878906 C 39.828125 94.023438 40.753906 94.949219 41.898438 94.949219 Z M 41.898438 94.949219 " fill-opacity="1" fill-rule="nonzero"></path><path fill="#34476e" d="M 41.898438 84.601562 L 75 84.601562 C 76.144531 84.601562 77.070312 83.679688 77.070312 82.535156 C 77.070312 81.390625 76.144531 80.464844 75 80.464844 L 41.898438 80.464844 C 40.753906 80.464844 39.828125 81.390625 39.828125 82.535156 C 39.828125 83.679688 40.753906 84.601562 41.898438 84.601562 Z M 41.898438 84.601562 " fill-opacity="1" fill-rule="nonzero"></path><g clip-path="url(#89a61af824)"><path fill="#34476e" d="M 106.035156 74.257812 L 106.035156 34.949219 C 106.035156 34.671875 105.976562 34.402344 105.875 34.152344 C 105.769531 33.898438 105.617188 33.671875 105.425781 33.484375 L 84.742188 12.796875 C 84.550781 12.609375 84.324219 12.457031 84.070312 12.351562 C 83.824219 12.246094 83.550781 12.191406 83.277344 12.191406 L 33.621094 12.191406 C 30.199219 12.191406 27.414062 14.972656 27.414062 18.398438 L 27.414062 24.601562 L 21.207031 24.601562 C 17.785156 24.601562 15 27.386719 15 30.808594 L 15 125.984375 C 15 129.40625 17.785156 132.191406 21.207031 132.191406 L 87.414062 132.191406 C 89.75 132.191406 91.761719 130.878906 92.820312 128.96875 C 96.789062 131.015625 101.273438 132.191406 106.035156 132.191406 C 122.007812 132.191406 135 119.195312 135 103.222656 C 135 87.253906 122.007812 74.257812 106.035156 74.257812 Z M 85.34375 19.253906 L 98.972656 32.878906 L 85.34375 32.878906 Z M 31.550781 18.398438 C 31.550781 17.253906 32.480469 16.328125 33.621094 16.328125 L 81.207031 16.328125 L 81.207031 34.949219 C 81.207031 36.09375 82.132812 37.015625 83.277344 37.015625 L 101.898438 37.015625 L 101.898438 74.589844 C 87.882812 76.609375 77.070312 88.660156 77.070312 103.222656 C 77.070312 107.671875 78.105469 111.871094 79.902344 115.636719 L 33.621094 115.636719 C 32.480469 115.636719 31.550781 114.710938 31.550781 113.570312 Z M 87.414062 128.050781 L 21.207031 128.050781 C 20.066406 128.050781 19.136719 127.125 19.136719 125.984375 L 19.136719 30.808594 C 19.136719 29.667969 20.066406 28.742188 21.207031 28.742188 L 27.414062 28.742188 L 27.414062 113.570312 C 27.414062 116.992188 30.199219 119.777344 33.621094 119.777344 L 82.296875 119.777344 C 84.210938 122.507812 86.582031 124.890625 89.296875 126.820312 C 88.972656 127.542969 88.253906 128.050781 87.414062 128.050781 Z M 106.035156 128.050781 C 92.34375 128.050781 81.207031 116.914062 81.207031 103.222656 C 81.207031 89.535156 92.34375 78.398438 106.035156 78.398438 C 119.726562 78.398438 130.863281 89.535156 130.863281 103.222656 C 130.863281 116.914062 119.726562 128.050781 106.035156 128.050781 Z M 106.035156 128.050781 " fill-opacity="1" fill-rule="nonzero"></path></g><path fill="#34476e" d="M 119.054688 91.417969 L 102.066406 108.402344 L 95.238281 99.863281 C 94.523438 98.96875 93.21875 98.824219 92.328125 99.539062 C 91.4375 100.253906 91.292969 101.554688 92.003906 102.449219 L 100.28125 112.792969 C 100.648438 113.25 101.195312 113.53125 101.78125 113.566406 C 102.363281 113.597656 102.949219 113.375 103.359375 112.960938 L 121.980469 94.34375 C 122.789062 93.535156 122.789062 92.226562 121.980469 91.417969 C 121.171875 90.609375 119.863281 90.609375 119.054688 91.417969 Z M 119.054688 91.417969 " fill-opacity="1" fill-rule="nonzero"></path></svg>