<svg xmlns="http://www.w3.org/2000/svg" xmlns:xlink="http://www.w3.org/1999/xlink" width="200" viewBox="0 0 150 149.999998" height="200" preserveAspectRatio="xMidYMid meet"><defs><g></g><clipPath id="3d48a83d25"><path d="M 9.976562 9.976562 L 140.023438 9.976562 L 140.023438 140.023438 L 9.976562 140.023438 Z M 9.976562 9.976562 " clip-rule="nonzero"></path></clipPath><clipPath id="9963e57e9a"><path d="M 75 9.976562 C 39.089844 9.976562 9.976562 39.089844 9.976562 75 C 9.976562 110.910156 39.089844 140.023438 75 140.023438 C 110.910156 140.023438 140.023438 110.910156 140.023438 75 C 140.023438 39.089844 110.910156 9.976562 75 9.976562 Z M 75 9.976562 " clip-rule="nonzero"></path></clipPath></defs><g clip-path="url(#3d48a83d25)"><g clip-path="url(#9963e57e9a)"><path fill="#99a0b6" d="M 9.976562 9.976562 L 140.023438 9.976562 L 140.023438 140.023438 L 9.976562 140.023438 Z M 9.976562 9.976562 " fill-opacity="1" fill-rule="nonzero"></path></g></g><g fill="#ffffff" fill-opacity="1"><g transform="translate(61.516229, 93.977165)"><g><path d="M 24.546875 -15.953125 C 25.046875 -14.316406 25.296875 -12.734375 25.296875 -11.203125 C 25.296875 -9.503906 25.03125 -7.96875 24.5 -6.59375 C 23.726562 -4.46875 22.375 -2.78125 20.4375 -1.53125 C 18.507812 -0.28125 16.25 0.34375 13.65625 0.34375 C 11.113281 0.34375 8.882812 -0.257812 6.96875 -1.46875 C 5.050781 -2.6875 3.695312 -4.347656 2.90625 -6.453125 C 2.601562 -7.117188 2.367188 -7.953125 2.203125 -8.953125 L 2.203125 -9.15625 C 2.203125 -9.613281 2.46875 -9.84375 3 -9.84375 L 8.546875 -9.84375 C 9.015625 -9.84375 9.332031 -9.613281 9.5 -9.15625 C 9.53125 -9.050781 9.613281 -8.816406 9.75 -8.453125 C 10.050781 -7.585938 10.539062 -6.921875 11.21875 -6.453125 C 11.90625 -5.984375 12.71875 -5.75 13.65625 -5.75 C 14.519531 -5.75 15.265625 -5.957031 15.890625 -6.375 C 16.523438 -6.789062 17.007812 -7.347656 17.34375 -8.046875 C 17.613281 -8.648438 17.75 -8.96875 17.75 -9 C 17.976562 -9.664062 18.09375 -10.347656 18.09375 -11.046875 C 18.164062 -11.984375 18.019531 -12.898438 17.65625 -13.796875 C 17.414062 -14.660156 16.945312 -15.328125 16.25 -15.796875 C 15.550781 -16.265625 14.6875 -16.5 13.65625 -16.5 C 12.820312 -16.5 12.0625 -16.347656 11.375 -16.046875 C 10.6875 -15.742188 10.160156 -15.28125 9.796875 -14.65625 C 9.566406 -14.21875 9.234375 -14 8.796875 -14 L 3.046875 -14 C 2.484375 -14 2.203125 -14.28125 2.203125 -14.84375 L 2.203125 -34.15625 C 2.203125 -34.71875 2.484375 -35 3.046875 -35 L 23.203125 -35 C 23.765625 -35 24.046875 -34.71875 24.046875 -34.15625 L 24.046875 -29.796875 C 24.046875 -29.234375 23.765625 -28.953125 23.203125 -28.953125 L 9.546875 -28.953125 C 9.484375 -28.953125 9.414062 -28.914062 9.34375 -28.84375 C 9.28125 -28.78125 9.25 -28.71875 9.25 -28.65625 L 9.203125 -21.40625 C 9.203125 -21.269531 9.234375 -21.179688 9.296875 -21.140625 C 9.367188 -21.109375 9.453125 -21.128906 9.546875 -21.203125 C 11.078125 -22.128906 12.796875 -22.59375 14.703125 -22.59375 C 17.035156 -22.59375 19.078125 -22 20.828125 -20.8125 C 22.578125 -19.632812 23.816406 -18.015625 24.546875 -15.953125 Z M 24.546875 -15.953125 "></path></g></g></g></svg>