<svg xmlns="http://www.w3.org/2000/svg" xmlns:xlink="http://www.w3.org/1999/xlink" width="200" viewBox="0 0 150 149.999998" height="200" preserveAspectRatio="xMidYMid meet"><defs><clipPath id="70047ccb93"><path d="M 68 24.019531 L 117 24.019531 L 117 72 L 68 72 Z M 68 24.019531 " clip-rule="nonzero"></path></clipPath><clipPath id="ef895f0dad"><path d="M 14.640625 73 L 135 73 L 135 121.519531 L 14.640625 121.519531 Z M 14.640625 73 " clip-rule="nonzero"></path></clipPath></defs><g clip-path="url(#70047ccb93)"><path fill="#1b4366" d="M 92.289062 71.964844 C 105.457031 71.964844 116.171875 61.214844 116.171875 47.996094 C 116.171875 34.78125 105.457031 24.027344 92.289062 24.027344 C 79.117188 24.027344 68.40625 34.78125 68.40625 47.996094 C 68.40625 61.214844 79.117188 71.964844 92.289062 71.964844 Z M 72.375 47.996094 C 72.375 36.976562 81.308594 28.015625 92.289062 28.015625 C 103.269531 28.015625 112.199219 36.976562 112.199219 47.996094 C 112.199219 59.015625 103.269531 67.980469 92.289062 67.980469 C 81.308594 67.980469 72.375 59.015625 72.375 47.996094 Z M 72.375 47.996094 " fill-opacity="1" fill-rule="nonzero"></path></g><path fill="#1b4366" d="M 86.453125 58.972656 C 87.484375 59.984375 88.859375 60.695312 90.371094 61.011719 L 90.355469 63.128906 C 90.347656 64.195312 91.207031 65.074219 92.273438 65.082031 L 92.289062 65.082031 C 93.34375 65.082031 94.210938 64.21875 94.21875 63.15625 L 94.234375 61.003906 C 95.742188 60.683594 97.109375 59.96875 98.136719 58.960938 C 99.328125 57.785156 99.984375 56.285156 99.984375 54.730469 L 99.984375 53.875 C 99.984375 51.808594 98.824219 49.855469 96.882812 48.648438 L 89.992188 44.367188 C 89.183594 43.867188 88.722656 43.164062 88.722656 42.4375 L 88.722656 41.097656 C 88.722656 40.449219 89.082031 39.820312 89.734375 39.335938 C 90.445312 38.808594 91.398438 38.515625 92.421875 38.515625 C 93.441406 38.515625 94.394531 38.804688 95.105469 39.335938 C 95.757812 39.820312 96.117188 40.449219 96.117188 41.097656 L 96.117188 42.609375 C 96.117188 43.679688 96.984375 44.546875 98.050781 44.546875 C 99.117188 44.546875 99.984375 43.679688 99.984375 42.609375 L 99.984375 41.097656 C 99.984375 38.144531 97.648438 35.589844 94.351562 34.851562 L 94.351562 32.851562 C 94.351562 31.78125 93.484375 30.914062 92.421875 30.914062 C 91.355469 30.914062 90.488281 31.78125 90.488281 32.851562 L 90.488281 34.851562 C 87.195312 35.589844 84.859375 38.144531 84.859375 41.097656 L 84.859375 42.4375 C 84.859375 44.503906 86.015625 46.457031 87.960938 47.664062 L 94.847656 51.945312 C 95.65625 52.445312 96.117188 53.148438 96.117188 53.875 L 96.117188 54.730469 C 96.117188 55.382812 95.757812 56.007812 95.105469 56.492188 C 94.394531 57.023438 93.441406 57.3125 92.421875 57.3125 L 92.15625 57.3125 C 91.136719 57.3125 90.183594 57.023438 89.472656 56.492188 C 88.820312 56.007812 88.460938 55.382812 88.460938 54.730469 L 88.460938 53.898438 C 88.460938 52.828125 87.59375 51.957031 86.527344 51.957031 C 85.460938 51.957031 84.59375 52.828125 84.59375 53.898438 L 84.59375 54.730469 C 84.59375 56.292969 85.253906 57.796875 86.453125 58.972656 Z M 86.453125 58.972656 " fill-opacity="1" fill-rule="nonzero"></path><g clip-path="url(#ef895f0dad)"><path fill="#1b4366" d="M 132.574219 77.726562 C 129.882812 74.722656 125.578125 74.421875 122.554688 77.023438 L 104.816406 91.421875 C 104.824219 91.246094 104.824219 91.070312 104.820312 90.890625 C 104.75 86.597656 101.390625 83.105469 97.332031 83.105469 L 77.636719 83.105469 C 76.5 83.105469 75.429688 82.445312 74.769531 81.34375 C 74.628906 81.105469 74.433594 80.910156 74.214844 80.738281 C 66.148438 74.351562 55.3125 73.515625 46.03125 77.65625 L 42.601562 79.1875 L 35.710938 79.1875 L 35.710938 76.027344 C 35.710938 74.894531 34.796875 73.976562 33.667969 73.976562 L 16.6875 73.976562 C 15.558594 73.976562 14.640625 74.894531 14.640625 76.027344 L 14.640625 113.980469 C 14.640625 115.113281 15.558594 116.03125 16.6875 116.03125 L 33.667969 116.03125 C 34.796875 116.03125 35.710938 115.113281 35.710938 113.980469 L 35.710938 110.722656 L 42.71875 110.722656 L 66.972656 118.453125 C 72.472656 120.492188 77.082031 121.511719 81.691406 121.511719 C 85.390625 121.511719 89.085938 120.859375 93.238281 119.546875 C 93.621094 119.425781 94.007812 119.300781 94.394531 119.167969 C 95.238281 118.84375 96.054688 118.457031 96.84375 118.015625 C 97.492188 117.652344 98.105469 117.230469 98.679688 116.757812 L 132.566406 89.015625 C 132.679688 88.921875 132.78125 88.820312 132.871094 88.707031 C 135.390625 85.542969 135.261719 80.71875 132.574219 77.726562 Z M 31.621094 111.929688 L 18.730469 111.929688 L 18.730469 78.082031 L 31.621094 78.082031 Z M 129.796875 85.988281 L 98.191406 111.863281 C 95.429688 114.125 92.195312 115.730469 88.726562 116.542969 C 81.855469 118.15625 76.191406 117.503906 68.347656 114.585938 C 68.316406 114.574219 68.285156 114.566406 68.253906 114.554688 L 43.65625 106.71875 C 43.453125 106.652344 43.246094 106.621094 43.035156 106.621094 L 35.710938 106.621094 L 35.710938 83.289062 L 43.035156 83.289062 C 43.324219 83.289062 43.605469 83.230469 43.867188 83.113281 L 47.695312 81.40625 C 55.511719 77.917969 64.386719 78.832031 71.507812 83.84375 C 72.933594 85.960938 75.195312 87.210938 77.636719 87.210938 L 97.332031 87.210938 C 99.171875 87.210938 100.699219 88.890625 100.734375 90.960938 C 100.75 92.101562 100.339844 93.1875 99.605469 93.9375 C 99.246094 94.304688 98.824219 94.570312 98.375 94.722656 C 97.792969 94.816406 97.203125 94.863281 96.605469 94.863281 L 74.695312 94.863281 C 73.570312 94.863281 72.632812 95.761719 72.621094 96.890625 C 72.605469 98.035156 73.527344 98.96875 74.664062 98.96875 L 97.507812 98.96875 C 98.121094 98.96875 98.726562 98.886719 99.308594 98.726562 C 101.859375 98.265625 104.265625 97.148438 106.382812 95.429688 L 125.148438 80.195312 C 125.167969 80.179688 125.183594 80.164062 125.199219 80.152344 C 126.519531 79.007812 128.34375 79.140625 129.535156 80.46875 C 130.855469 81.941406 130.957031 84.375 129.796875 85.988281 Z M 129.796875 85.988281 " fill-opacity="1" fill-rule="nonzero"></path></g></svg>