<svg xmlns="http://www.w3.org/2000/svg" xmlns:xlink="http://www.w3.org/1999/xlink" width="200" viewBox="0 0 150 149.999998" height="200" preserveAspectRatio="xMidYMid meet"><defs><clipPath id="d211b33635"><path d="M 28.449219 93 L 94 93 L 94 140 L 28.449219 140 Z M 28.449219 93 " clip-rule="nonzero"></path></clipPath><clipPath id="d1809e8412"><path d="M 54 93 L 121.449219 93 L 121.449219 131 L 54 131 Z M 54 93 " clip-rule="nonzero"></path></clipPath></defs><g clip-path="url(#d211b33635)"><path fill="#34476e" d="M 89.09375 130.066406 C 88.414062 129.972656 81.34375 120.558594 81.34375 120.558594 C 80.761719 119.6875 79.5 119.492188 78.628906 120.171875 C 77.757812 120.753906 77.5625 122.015625 78.242188 122.886719 C 78.242188 122.886719 83.765625 130.554688 83.765625 130.554688 C 84.34375 131.328125 83.765625 132.300781 82.988281 132.785156 C 81.921875 133.367188 80.375 133.074219 79.792969 132.203125 L 74.367188 124.539062 C 73.785156 123.664062 72.527344 123.46875 71.65625 124.050781 C 70.78125 124.632812 70.589844 125.894531 71.171875 126.769531 C 71.171875 126.769531 75.140625 132.398438 75.140625 132.398438 C 75.625 133.269531 75.53125 134.046875 74.65625 134.53125 C 73.59375 135.113281 72.042969 134.824219 71.460938 133.949219 L 66.035156 126.285156 C 65.453125 125.410156 64.195312 125.21875 63.324219 125.800781 C 62.453125 126.382812 62.257812 127.640625 62.839844 128.515625 C 62.839844 128.515625 66.035156 133.074219 66.035156 133.074219 C 66.617188 133.851562 66.328125 134.917969 65.453125 135.308594 C 64.390625 135.890625 62.839844 135.597656 62.257812 134.726562 L 54.507812 123.179688 C 53.828125 122.113281 52.570312 120.949219 49.953125 120.949219 L 47.824219 120.949219 L 47.824219 100.570312 L 58.285156 100.570312 L 61.96875 96.691406 L 47.726562 96.691406 C 47.339844 95.042969 45.789062 93.78125 43.949219 93.78125 L 30.386719 93.78125 C 29.320312 93.78125 28.449219 94.652344 28.449219 95.71875 C 28.449219 96.789062 29.320312 97.660156 30.386719 97.660156 L 43.949219 97.660156 L 43.949219 124.828125 L 34.261719 124.828125 C 33.195312 124.828125 32.324219 125.703125 32.324219 126.769531 C 32.324219 127.835938 33.195312 128.710938 34.261719 128.710938 L 43.949219 128.710938 C 46.078125 128.710938 47.824219 126.964844 47.824219 124.828125 L 47.824219 124.730469 L 50.148438 124.730469 C 51.117188 124.730469 51.3125 125.023438 51.40625 125.214844 C 51.40625 125.214844 59.15625 136.859375 59.15625 136.859375 C 60.902344 139.480469 64.679688 140.0625 67.296875 138.703125 C 68.070312 138.316406 68.652344 137.734375 69.136719 137.152344 C 70.296875 138.121094 71.847656 138.703125 73.398438 138.703125 C 74.464844 138.703125 75.433594 138.507812 76.402344 137.925781 C 77.273438 137.441406 77.953125 136.859375 78.53125 136.082031 C 79.5 136.664062 80.566406 136.957031 81.730469 136.957031 C 82.796875 136.957031 83.765625 136.761719 84.734375 136.179688 C 85.894531 135.597656 86.765625 134.726562 87.25 133.65625 C 87.929688 133.949219 88.703125 134.046875 89.480469 134.046875 C 90.351562 134.046875 91.320312 133.851562 92.191406 133.464844 C 92.675781 133.269531 93.0625 132.980469 93.453125 132.6875 C 91.804688 132.589844 90.15625 131.621094 89.09375 130.066406 Z M 89.09375 130.066406 " fill-opacity="1" fill-rule="nonzero"></path></g><path fill="#34476e" d="M 53.25 40.222656 C 52.570312 39.347656 51.40625 39.152344 50.535156 39.832031 L 46.660156 42.742188 L 45.304688 41.386719 C 44.53125 40.609375 43.269531 40.707031 42.59375 41.480469 C 41.816406 42.257812 41.914062 43.519531 42.6875 44.199219 C 42.6875 44.199219 45.304688 46.625 45.304688 46.625 C 45.984375 47.207031 47.046875 47.304688 47.824219 46.722656 L 52.957031 42.839844 C 53.734375 42.257812 53.925781 41.09375 53.25 40.222656 Z M 53.25 40.222656 " fill-opacity="1" fill-rule="nonzero"></path><path fill="#34476e" d="M 107.886719 37.503906 C 107.886719 36.4375 107.015625 35.5625 105.949219 35.5625 L 59.449219 35.5625 C 58.382812 35.5625 57.511719 36.4375 57.511719 37.503906 L 57.511719 45.265625 C 57.511719 46.332031 58.382812 47.207031 59.449219 47.207031 L 105.949219 47.207031 C 107.015625 47.207031 107.886719 46.332031 107.886719 45.265625 Z M 104.011719 43.324219 L 61.386719 43.324219 L 61.386719 39.445312 L 104.011719 39.445312 Z M 104.011719 43.324219 " fill-opacity="1" fill-rule="nonzero"></path><path fill="#34476e" d="M 53.25 55.746094 C 52.570312 54.871094 51.40625 54.679688 50.535156 55.355469 L 46.660156 58.269531 L 45.304688 56.910156 C 44.53125 56.132812 43.269531 56.230469 42.59375 57.007812 C 41.816406 57.78125 41.914062 59.042969 42.6875 59.722656 C 42.6875 59.722656 45.304688 62.148438 45.304688 62.148438 C 45.984375 62.828125 47.046875 62.828125 47.824219 62.246094 L 52.957031 58.363281 C 53.734375 57.78125 53.925781 56.617188 53.25 55.746094 Z M 53.25 55.746094 " fill-opacity="1" fill-rule="nonzero"></path><path fill="#34476e" d="M 107.886719 53.027344 C 107.886719 51.960938 107.015625 51.089844 105.949219 51.089844 L 59.449219 51.089844 C 58.382812 51.089844 57.511719 51.960938 57.511719 53.027344 L 57.511719 60.789062 C 57.511719 61.859375 58.382812 62.730469 59.449219 62.730469 L 105.949219 62.730469 C 107.015625 62.730469 107.886719 61.859375 107.886719 60.789062 Z M 104.011719 58.851562 L 61.386719 58.851562 L 61.386719 54.96875 L 104.011719 54.96875 Z M 104.011719 58.851562 " fill-opacity="1" fill-rule="nonzero"></path><path fill="#34476e" d="M 50.535156 70.882812 L 46.660156 73.792969 L 45.304688 72.433594 C 44.53125 71.65625 43.269531 71.753906 42.59375 72.53125 C 41.816406 73.308594 41.914062 74.570312 42.6875 75.246094 C 42.6875 75.246094 45.304688 77.671875 45.304688 77.671875 C 45.984375 78.351562 47.046875 78.351562 47.824219 77.769531 L 52.957031 73.890625 C 53.828125 73.210938 54.023438 72.046875 53.34375 71.171875 C 52.667969 70.300781 51.40625 70.203125 50.535156 70.882812 Z M 50.535156 70.882812 " fill-opacity="1" fill-rule="nonzero"></path><path fill="#34476e" d="M 105.949219 66.613281 L 59.449219 66.613281 C 58.382812 66.613281 57.511719 67.484375 57.511719 68.554688 L 57.511719 76.316406 C 57.511719 77.382812 58.382812 78.253906 59.449219 78.253906 L 105.949219 78.253906 C 107.015625 78.253906 107.886719 77.382812 107.886719 76.316406 L 107.886719 68.554688 C 107.886719 67.484375 107.015625 66.613281 105.949219 66.613281 Z M 104.011719 74.375 L 61.386719 74.375 L 61.386719 70.492188 L 104.011719 70.492188 Z M 104.011719 74.375 " fill-opacity="1" fill-rule="nonzero"></path><g clip-path="url(#d1809e8412)"><path fill="#34476e" d="M 119.511719 93.78125 L 105.949219 93.78125 C 103.816406 93.78125 102.074219 95.527344 102.074219 97.660156 L 102.074219 98.632812 L 99.652344 98.632812 C 99.457031 98.632812 99.265625 98.632812 99.070312 98.535156 L 93.9375 95.914062 C 92.484375 95.136719 90.835938 94.75 89.09375 94.75 L 73.59375 94.75 C 70.6875 94.75 67.972656 95.914062 66.132812 97.855469 L 55.28125 109.5 C 54.796875 109.984375 54.605469 110.757812 54.796875 111.4375 C 54.894531 111.730469 56.929688 118.035156 67.390625 115.222656 C 68.359375 114.933594 69.234375 114.542969 69.910156 113.863281 L 75.53125 108.429688 L 80.566406 108.429688 L 92.289062 127.933594 C 92.675781 128.515625 93.257812 128.902344 93.9375 128.902344 L 102.65625 128.902344 C 103.332031 129.972656 104.59375 130.746094 105.949219 130.746094 L 115.636719 130.746094 C 116.703125 130.746094 117.574219 129.875 117.574219 128.808594 C 117.574219 127.738281 116.703125 126.867188 115.636719 126.867188 L 105.949219 126.867188 L 105.949219 97.660156 L 119.511719 97.660156 C 120.578125 97.660156 121.449219 96.789062 121.449219 95.71875 C 121.449219 94.652344 120.578125 93.78125 119.511719 93.78125 Z M 102.074219 124.925781 L 95.097656 124.925781 L 83.375 105.421875 C 82.988281 104.839844 82.40625 104.453125 81.730469 104.453125 L 74.851562 104.453125 C 74.367188 104.453125 73.882812 104.648438 73.496094 105.035156 L 67.296875 110.953125 C 67.101562 111.148438 66.714844 111.34375 66.421875 111.4375 C 62.0625 112.601562 60.03125 111.730469 59.15625 111.050781 L 68.941406 100.570312 C 70.105469 99.40625 71.75 98.632812 73.59375 98.632812 L 89.09375 98.632812 C 90.15625 98.632812 91.222656 98.921875 92.191406 99.3125 L 97.328125 101.929688 C 98.003906 102.320312 98.875 102.511719 99.652344 102.511719 L 102.074219 102.511719 Z M 102.074219 124.925781 " fill-opacity="1" fill-rule="nonzero"></path></g><path fill="#34476e" d="M 115.636719 120.949219 C 115.636719 121.203125 115.585938 121.453125 115.488281 121.691406 C 115.390625 121.929688 115.25 122.136719 115.070312 122.320312 C 114.886719 122.5 114.675781 122.640625 114.441406 122.742188 C 114.203125 122.839844 113.957031 122.886719 113.699219 122.886719 C 113.441406 122.886719 113.195312 122.839844 112.957031 122.742188 C 112.71875 122.640625 112.511719 122.5 112.328125 122.320312 C 112.148438 122.136719 112.007812 121.929688 111.910156 121.691406 C 111.808594 121.453125 111.761719 121.203125 111.761719 120.949219 C 111.761719 120.691406 111.808594 120.441406 111.910156 120.203125 C 112.007812 119.96875 112.148438 119.757812 112.328125 119.574219 C 112.511719 119.394531 112.71875 119.253906 112.957031 119.15625 C 113.195312 119.054688 113.441406 119.007812 113.699219 119.007812 C 113.957031 119.007812 114.203125 119.054688 114.441406 119.15625 C 114.675781 119.253906 114.886719 119.394531 115.070312 119.574219 C 115.25 119.757812 115.390625 119.96875 115.488281 120.203125 C 115.585938 120.441406 115.636719 120.691406 115.636719 120.949219 Z M 115.636719 120.949219 " fill-opacity="1" fill-rule="nonzero"></path><path fill="#34476e" d="M 38.136719 103.484375 C 38.136719 103.738281 38.085938 103.988281 37.988281 104.226562 C 37.890625 104.464844 37.75 104.671875 37.570312 104.855469 C 37.386719 105.035156 37.175781 105.175781 36.941406 105.277344 C 36.703125 105.375 36.457031 105.421875 36.199219 105.421875 C 35.941406 105.421875 35.695312 105.375 35.457031 105.277344 C 35.21875 105.175781 35.011719 105.035156 34.828125 104.855469 C 34.648438 104.671875 34.507812 104.464844 34.410156 104.226562 C 34.308594 103.988281 34.261719 103.738281 34.261719 103.484375 C 34.261719 103.226562 34.308594 102.976562 34.410156 102.738281 C 34.507812 102.503906 34.648438 102.292969 34.828125 102.109375 C 35.011719 101.929688 35.21875 101.789062 35.457031 101.691406 C 35.695312 101.589844 35.941406 101.542969 36.199219 101.542969 C 36.457031 101.542969 36.703125 101.589844 36.941406 101.691406 C 37.175781 101.789062 37.386719 101.929688 37.570312 102.109375 C 37.75 102.292969 37.890625 102.503906 37.988281 102.738281 C 38.085938 102.976562 38.136719 103.226562 38.136719 103.484375 Z M 38.136719 103.484375 " fill-opacity="1" fill-rule="nonzero"></path><path fill="#34476e" d="M 38.136719 21.007812 C 38.136719 19.941406 39.007812 19.070312 40.074219 19.070312 L 109.824219 19.070312 C 110.890625 19.070312 111.761719 19.941406 111.761719 21.007812 L 111.761719 89.898438 L 115.636719 89.898438 L 115.636719 21.007812 C 115.636719 17.808594 113.019531 15.1875 109.824219 15.1875 L 40.074219 15.1875 C 36.875 15.1875 34.261719 17.808594 34.261719 21.007812 L 34.261719 89.898438 L 38.136719 89.898438 Z M 38.136719 21.007812 " fill-opacity="1" fill-rule="nonzero"></path></svg>