<svg xmlns="http://www.w3.org/2000/svg" xmlns:xlink="http://www.w3.org/1999/xlink" width="1080" zoomAndPan="magnify" viewBox="0 0 810 225" height="300" preserveAspectRatio="xMidYMid meet" version="1.0"><defs><g/></defs><path fill="#ffffff" d="M 68.054688 94.792969 C 68.054688 94.792969 67.605469 89.332031 73.601562 89.332031 C 79.597656 89.332031 77.695312 89.332031 83.601562 89.78125 C 89.507812 90.234375 88.59375 97.238281 88.59375 97.238281 L 88.59375 153.082031 C 88.59375 153.082031 87.859375 157.808594 83.40625 157.988281 C 78.953125 158.167969 73.5 158.167969 73.5 158.167969 C 73.5 158.167969 68.222656 157.808594 68.3125 153.261719 L 68.132812 150.621094 C 64.570312 153.839844 60.039062 157.035156 55.871094 158.167969 L 37.828125 158.308594 C 27.289062 155.023438 21.152344 147 17.523438 137.820312 L 17.523438 112.796875 C 20.972656 98.335938 33.160156 91.417969 43.066406 89.332031 L 53.066406 89.332031 C 63.152344 90.066406 68.054688 97.238281 68.054688 97.238281 Z M 37.289062 107.183594 C 37.289062 107.183594 33.015625 137.109375 50.554688 139.378906 C 54.957031 139.945312 65.546875 139.789062 65.546875 139.789062 C 65.546875 139.789062 68.996094 108.90625 51.585938 107.183594 C 45.652344 106.601562 37.289062 107.183594 37.289062 107.183594 Z M 37.289062 107.183594 " fill-opacity="1" fill-rule="nonzero"/><g fill="#ffffff" fill-opacity="1"><g transform="translate(92.807881, 160.712756)"><g><path d="M 71.6875 -70.796875 C 73.695312 -70.796875 75.269531 -70.222656 76.40625 -69.078125 C 77.550781 -67.941406 78.125 -66.367188 78.125 -64.359375 L 78.125 -8.828125 C 78.125 -3.035156 77.117188 2.140625 75.109375 6.703125 C 73.097656 11.273438 70.289062 15 66.6875 17.875 C 63.082031 20.75 58.90625 22.925781 54.15625 24.40625 C 49.40625 25.894531 44.203125 26.640625 38.546875 26.640625 C 25.078125 26.640625 14.375 22.664062 6.4375 14.71875 C 3.789062 11.9375 3.695312 9.082031 6.15625 6.15625 L 10.0625 1.578125 C 12.625 -1.117188 15.429688 -1.234375 18.484375 1.234375 C 20.765625 3.328125 23.707031 5.160156 27.3125 6.734375 C 30.925781 8.316406 34.765625 9.109375 38.828125 9.109375 C 43.566406 9.109375 47.601562 7.96875 50.9375 5.6875 C 54.269531 3.40625 55.9375 0.0703125 55.9375 -4.3125 L 55.9375 -11.5 C 50.363281 -7.757812 44.109375 -5.890625 37.171875 -5.890625 C 27.773438 -5.890625 19.90625 -9.023438 13.5625 -15.296875 C 7.21875 -21.578125 4.046875 -29.460938 4.046875 -38.953125 C 4.046875 -48.398438 7.226562 -56.257812 13.59375 -62.53125 C 19.957031 -68.8125 27.863281 -71.953125 37.3125 -71.953125 C 45.394531 -71.953125 52.539062 -69.375 58.75 -64.21875 L 58.75 -64.359375 C 58.75 -66.410156 59.304688 -67.992188 60.421875 -69.109375 C 61.535156 -70.234375 63.125 -70.796875 65.1875 -70.796875 Z M 42.796875 -23.6875 C 47.128906 -23.6875 50.6875 -25.113281 53.46875 -27.96875 C 56.257812 -30.820312 57.65625 -34.441406 57.65625 -38.828125 C 57.65625 -43.296875 56.257812 -46.96875 53.46875 -49.84375 C 50.6875 -52.71875 47.128906 -54.15625 42.796875 -54.15625 C 38.503906 -54.15625 34.976562 -52.726562 32.21875 -49.875 C 29.457031 -47.019531 28.078125 -43.378906 28.078125 -38.953125 C 28.078125 -34.523438 29.457031 -30.875 32.21875 -28 C 34.976562 -25.125 38.503906 -23.6875 42.796875 -23.6875 Z M 42.796875 -23.6875 "/></g></g></g><g fill="#ffffff" fill-opacity="1"><g transform="translate(178.862629, 160.712756)"><g><path d="M 57.515625 -70.390625 C 59.015625 -69.878906 60.09375 -69.203125 60.75 -68.359375 C 61.414062 -67.515625 61.5 -66.179688 61 -64.359375 L 58.328125 -53.8125 C 57.285156 -50.164062 55.320312 -48.910156 52.4375 -50.046875 C 49.289062 -51.003906 46.851562 -51.484375 45.125 -51.484375 C 41.0625 -51.484375 37.921875 -50.25 35.703125 -47.78125 C 33.492188 -45.320312 32.390625 -41.96875 32.390625 -37.71875 L 32.390625 -6.4375 C 32.390625 -4.425781 31.835938 -2.847656 30.734375 -1.703125 C 29.640625 -0.566406 28.085938 0 26.078125 0 L 14.453125 0 C 12.441406 0 10.882812 -0.566406 9.78125 -1.703125 C 8.6875 -2.847656 8.140625 -4.425781 8.140625 -6.4375 L 8.140625 -64.359375 C 8.140625 -66.367188 8.6875 -67.941406 9.78125 -69.078125 C 10.882812 -70.222656 12.441406 -70.796875 14.453125 -70.796875 L 21.84375 -70.796875 C 23.851562 -70.796875 25.414062 -70.222656 26.53125 -69.078125 C 27.644531 -67.941406 28.203125 -66.367188 28.203125 -64.359375 L 28.203125 -61 C 33.453125 -68.300781 39.84375 -71.953125 47.375 -71.953125 C 50.894531 -71.953125 54.273438 -71.429688 57.515625 -70.390625 Z M 57.515625 -70.390625 "/></g></g></g><g fill="#ffffff" fill-opacity="1"><g transform="translate(240.066243, 160.712756)"><g><path d="M 43.203125 1.84375 C 31.878906 1.84375 22.519531 -1.65625 15.125 -8.65625 C 7.738281 -15.664062 4.046875 -24.460938 4.046875 -35.046875 C 4.046875 -45.640625 7.738281 -54.4375 15.125 -61.4375 C 22.519531 -68.445312 31.878906 -71.953125 43.203125 -71.953125 C 50.691406 -71.953125 57.410156 -70.351562 63.359375 -67.15625 C 69.316406 -63.96875 73.960938 -59.566406 77.296875 -53.953125 C 80.628906 -48.335938 82.296875 -42.035156 82.296875 -35.046875 C 82.296875 -28.066406 80.628906 -21.769531 77.296875 -16.15625 C 73.960938 -10.539062 69.316406 -6.132812 63.359375 -2.9375 C 57.410156 0.25 50.691406 1.84375 43.203125 1.84375 Z M 32.28125 -23.484375 C 35.175781 -20.421875 38.816406 -18.890625 43.203125 -18.890625 C 47.585938 -18.890625 51.203125 -20.421875 54.046875 -23.484375 C 56.898438 -26.546875 58.328125 -30.398438 58.328125 -35.046875 C 58.328125 -39.703125 56.898438 -43.5625 54.046875 -46.625 C 51.203125 -49.6875 47.585938 -51.21875 43.203125 -51.21875 C 38.816406 -51.21875 35.175781 -49.6875 32.28125 -46.625 C 29.382812 -43.5625 27.9375 -39.703125 27.9375 -35.046875 C 27.9375 -30.398438 29.382812 -26.546875 32.28125 -23.484375 Z M 32.28125 -23.484375 "/></g></g></g><g fill="#ffffff" fill-opacity="1"><g transform="translate(326.394832, 160.712756)"><g><path d="M 14.71875 0 C 12.664062 0 11.078125 -0.554688 9.953125 -1.671875 C 8.835938 -2.796875 8.28125 -4.382812 8.28125 -6.4375 L 8.28125 -91.40625 C 8.28125 -93.363281 8.816406 -94.84375 9.890625 -95.84375 C 10.960938 -96.851562 12.570312 -97.539062 14.71875 -97.90625 L 26.078125 -100.09375 C 28.085938 -100.507812 29.6875 -100.085938 30.875 -98.828125 C 32.0625 -97.578125 32.65625 -95.851562 32.65625 -93.65625 L 32.65625 -6.4375 C 32.65625 -4.425781 32.082031 -2.847656 30.9375 -1.703125 C 29.800781 -0.566406 28.226562 0 26.21875 0 Z M 14.71875 0 "/></g></g></g><g fill="#ffffff" fill-opacity="1"><g transform="translate(367.334163, 160.712756)"><g><path d="M 2.671875 -82.84375 L 0 -87.78125 C -1.644531 -90.46875 -0.847656 -92.75 2.390625 -94.625 L 26.90625 -108.9375 C 29.644531 -110.664062 31.695312 -110.253906 33.0625 -107.703125 L 38 -98.59375 C 38.6875 -97.039062 38.820312 -95.75 38.40625 -94.71875 C 38 -93.695312 37.15625 -92.929688 35.875 -92.421875 L 9.109375 -81.75 C 5.867188 -80.5625 3.722656 -80.925781 2.671875 -82.84375 Z M 14.578125 0 C 12.523438 0 10.9375 -0.554688 9.8125 -1.671875 C 8.695312 -2.796875 8.140625 -4.382812 8.140625 -6.4375 L 8.140625 -64.359375 C 8.140625 -66.410156 8.695312 -67.992188 9.8125 -69.109375 C 10.9375 -70.234375 12.523438 -70.796875 14.578125 -70.796875 L 26.078125 -70.796875 C 28.085938 -70.796875 29.660156 -70.222656 30.796875 -69.078125 C 31.941406 -67.941406 32.515625 -66.367188 32.515625 -64.359375 L 32.515625 -6.4375 C 32.515625 -4.425781 31.941406 -2.847656 30.796875 -1.703125 C 29.660156 -0.566406 28.085938 0 26.078125 0 Z M 14.578125 0 "/></g></g></g><g fill="#ffffff" fill-opacity="1"><g transform="translate(407.931192, 160.712756)"><g><path d="M 74.765625 -99.953125 C 76.816406 -100.234375 78.398438 -99.769531 79.515625 -98.5625 C 80.640625 -97.351562 81.203125 -95.675781 81.203125 -93.53125 L 81.203125 -6.4375 C 81.203125 -4.425781 80.65625 -2.847656 79.5625 -1.703125 C 78.46875 -0.566406 76.914062 0 74.90625 0 L 67.4375 0 C 65.425781 0 63.847656 -0.566406 62.703125 -1.703125 C 61.566406 -2.847656 61 -4.425781 61 -6.4375 L 61 -6.984375 C 54.976562 -1.097656 47.675781 1.84375 39.09375 1.84375 C 32.476562 1.84375 26.488281 0.222656 21.125 -3.015625 C 15.757812 -6.253906 11.570312 -10.691406 8.5625 -16.328125 C 5.550781 -21.960938 4.046875 -28.203125 4.046875 -35.046875 C 4.046875 -41.898438 5.539062 -48.132812 8.53125 -53.75 C 11.519531 -59.363281 15.691406 -63.800781 21.046875 -67.0625 C 26.410156 -70.320312 32.425781 -71.953125 39.09375 -71.953125 C 45.570312 -71.953125 51.503906 -70.3125 56.890625 -67.03125 L 56.890625 -91.40625 C 56.890625 -93.363281 57.425781 -94.84375 58.5 -95.84375 C 59.570312 -96.851562 61.160156 -97.539062 63.265625 -97.90625 Z M 43.0625 -18.890625 C 47.394531 -18.890625 50.976562 -20.375 53.8125 -23.34375 C 56.644531 -26.3125 58.0625 -30.21875 58.0625 -35.0625 C 58.0625 -39.851562 56.632812 -43.742188 53.78125 -46.734375 C 50.925781 -49.722656 47.351562 -51.21875 43.0625 -51.21875 C 38.6875 -51.21875 35.070312 -49.675781 32.21875 -46.59375 C 29.363281 -43.507812 27.9375 -39.660156 27.9375 -35.046875 C 27.9375 -30.441406 29.363281 -26.597656 32.21875 -23.515625 C 35.070312 -20.429688 38.6875 -18.890625 43.0625 -18.890625 Z M 43.0625 -18.890625 "/></g></g></g><g fill="#ffffff" fill-opacity="1"><g transform="translate(497.61434, 160.712756)"><g><path d="M 27.59375 -29.84375 C 28.132812 -25.332031 30.117188 -21.796875 33.546875 -19.234375 C 36.972656 -16.679688 41.082031 -15.40625 45.875 -15.40625 C 50.988281 -15.40625 55.984375 -17.09375 60.859375 -20.46875 C 61.816406 -21.195312 62.640625 -21.722656 63.328125 -22.046875 C 64.015625 -22.367188 64.769531 -22.4375 65.59375 -22.25 C 66.414062 -22.070312 67.257812 -21.523438 68.125 -20.609375 L 72.921875 -15.671875 C 75.335938 -13.347656 75.425781 -10.976562 73.1875 -8.5625 C 70.132812 -5.320312 65.800781 -2.773438 60.1875 -0.921875 C 54.570312 0.921875 48.863281 1.84375 43.0625 1.84375 C 31.789062 1.84375 22.488281 -1.609375 15.15625 -8.515625 C 7.832031 -15.429688 4.171875 -24.320312 4.171875 -35.1875 C 4.171875 -42.175781 5.769531 -48.460938 8.96875 -54.046875 C 12.164062 -59.640625 16.640625 -64.019531 22.390625 -67.1875 C 28.140625 -70.363281 34.644531 -71.953125 41.90625 -71.953125 C 47.382812 -71.953125 52.390625 -71.0625 56.921875 -69.28125 C 61.460938 -67.507812 65.285156 -65.070312 68.390625 -61.96875 C 71.640625 -58.71875 74.164062 -54.878906 75.96875 -50.453125 C 77.769531 -46.023438 78.671875 -41.414062 78.671875 -36.625 C 78.671875 -34.070312 78.222656 -32.300781 77.328125 -31.3125 C 76.441406 -30.332031 74.742188 -29.84375 72.234375 -29.84375 Z M 41.359375 -55.25 C 37.609375 -55.25 34.535156 -54.175781 32.140625 -52.03125 C 29.742188 -49.882812 28.296875 -46.941406 27.796875 -43.203125 L 55.109375 -43.203125 C 54.566406 -46.578125 53.269531 -49.289062 51.21875 -51.34375 C 48.613281 -53.945312 45.328125 -55.25 41.359375 -55.25 Z M 41.359375 -55.25 "/></g></g></g><g fill="#ffffff" fill-opacity="1"><g transform="translate(579.903793, 160.712756)"><g><path d="M 57.515625 -70.390625 C 59.015625 -69.878906 60.09375 -69.203125 60.75 -68.359375 C 61.414062 -67.515625 61.5 -66.179688 61 -64.359375 L 58.328125 -53.8125 C 57.285156 -50.164062 55.320312 -48.910156 52.4375 -50.046875 C 49.289062 -51.003906 46.851562 -51.484375 45.125 -51.484375 C 41.0625 -51.484375 37.921875 -50.25 35.703125 -47.78125 C 33.492188 -45.320312 32.390625 -41.96875 32.390625 -37.71875 L 32.390625 -6.4375 C 32.390625 -4.425781 31.835938 -2.847656 30.734375 -1.703125 C 29.640625 -0.566406 28.085938 0 26.078125 0 L 14.453125 0 C 12.441406 0 10.882812 -0.566406 9.78125 -1.703125 C 8.6875 -2.847656 8.140625 -4.425781 8.140625 -6.4375 L 8.140625 -64.359375 C 8.140625 -66.367188 8.6875 -67.941406 9.78125 -69.078125 C 10.882812 -70.222656 12.441406 -70.796875 14.453125 -70.796875 L 21.84375 -70.796875 C 23.851562 -70.796875 25.414062 -70.222656 26.53125 -69.078125 C 27.644531 -67.941406 28.203125 -66.367188 28.203125 -64.359375 L 28.203125 -61 C 33.453125 -68.300781 39.84375 -71.953125 47.375 -71.953125 C 50.894531 -71.953125 54.273438 -71.429688 57.515625 -70.390625 Z M 57.515625 -70.390625 "/></g></g></g><g fill="#ffffff" fill-opacity="1"><g transform="translate(641.107407, 160.712756)"><g><path d="M 27.59375 -29.84375 C 28.132812 -25.332031 30.117188 -21.796875 33.546875 -19.234375 C 36.972656 -16.679688 41.082031 -15.40625 45.875 -15.40625 C 50.988281 -15.40625 55.984375 -17.09375 60.859375 -20.46875 C 61.816406 -21.195312 62.640625 -21.722656 63.328125 -22.046875 C 64.015625 -22.367188 64.769531 -22.4375 65.59375 -22.25 C 66.414062 -22.070312 67.257812 -21.523438 68.125 -20.609375 L 72.921875 -15.671875 C 75.335938 -13.347656 75.425781 -10.976562 73.1875 -8.5625 C 70.132812 -5.320312 65.800781 -2.773438 60.1875 -0.921875 C 54.570312 0.921875 48.863281 1.84375 43.0625 1.84375 C 31.789062 1.84375 22.488281 -1.609375 15.15625 -8.515625 C 7.832031 -15.429688 4.171875 -24.320312 4.171875 -35.1875 C 4.171875 -42.175781 5.769531 -48.460938 8.96875 -54.046875 C 12.164062 -59.640625 16.640625 -64.019531 22.390625 -67.1875 C 28.140625 -70.363281 34.644531 -71.953125 41.90625 -71.953125 C 47.382812 -71.953125 52.390625 -71.0625 56.921875 -69.28125 C 61.460938 -67.507812 65.285156 -65.070312 68.390625 -61.96875 C 71.640625 -58.71875 74.164062 -54.878906 75.96875 -50.453125 C 77.769531 -46.023438 78.671875 -41.414062 78.671875 -36.625 C 78.671875 -34.070312 78.222656 -32.300781 77.328125 -31.3125 C 76.441406 -30.332031 74.742188 -29.84375 72.234375 -29.84375 Z M 41.359375 -55.25 C 37.609375 -55.25 34.535156 -54.175781 32.140625 -52.03125 C 29.742188 -49.882812 28.296875 -46.941406 27.796875 -43.203125 L 55.109375 -43.203125 C 54.566406 -46.578125 53.269531 -49.289062 51.21875 -51.34375 C 48.613281 -53.945312 45.328125 -55.25 41.359375 -55.25 Z M 41.359375 -55.25 "/></g></g></g><g fill="#ffffff" fill-opacity="1"><g transform="translate(723.396832, 160.712756)"><g><path d="M 35.46875 1.984375 C 29.625 1.984375 24.007812 0.992188 18.625 -0.984375 C 13.238281 -2.972656 9.039062 -5.359375 6.03125 -8.140625 C 4.332031 -9.691406 3.414062 -11.148438 3.28125 -12.515625 C 3.144531 -13.890625 3.878906 -15.5625 5.484375 -17.53125 L 8.828125 -21.5625 C 9.835938 -22.800781 10.898438 -23.585938 12.015625 -23.921875 C 13.128906 -24.265625 14.15625 -24.273438 15.09375 -23.953125 C 16.03125 -23.640625 17.070312 -23.09375 18.21875 -22.3125 C 23.875 -18.207031 29.671875 -16.15625 35.609375 -16.15625 C 37.703125 -16.15625 39.316406 -16.519531 40.453125 -17.25 C 41.597656 -17.976562 42.171875 -19.003906 42.171875 -20.328125 C 42.171875 -20.972656 41.988281 -21.578125 41.625 -22.140625 C 41.257812 -22.710938 40.847656 -23.191406 40.390625 -23.578125 C 39.929688 -23.972656 39.242188 -24.382812 38.328125 -24.8125 C 37.421875 -25.25 36.660156 -25.582031 36.046875 -25.8125 C 35.429688 -26.039062 34.53125 -26.359375 33.34375 -26.765625 C 31.0625 -27.453125 29.234375 -28.023438 27.859375 -28.484375 C 26.492188 -28.941406 24.769531 -29.578125 22.6875 -30.390625 C 20.613281 -31.210938 18.925781 -32.007812 17.625 -32.78125 C 16.320312 -33.5625 14.914062 -34.546875 13.40625 -35.734375 C 11.90625 -36.921875 10.722656 -38.175781 9.859375 -39.5 C 8.992188 -40.820312 8.273438 -42.375 7.703125 -44.15625 C 7.128906 -45.9375 6.84375 -47.851562 6.84375 -49.90625 C 6.84375 -56.707031 9.441406 -62.101562 14.640625 -66.09375 C 19.847656 -70.09375 26.835938 -72.09375 35.609375 -72.09375 C 40.535156 -72.09375 45.425781 -71.335938 50.28125 -69.828125 C 55.144531 -68.328125 58.859375 -66.503906 61.421875 -64.359375 C 63.109375 -62.898438 63.992188 -61.484375 64.078125 -60.109375 C 64.171875 -58.742188 63.421875 -56.988281 61.828125 -54.84375 L 58.875 -51.21875 C 56.550781 -48.195312 53.5625 -47.804688 49.90625 -50.046875 C 45.570312 -53.148438 40.894531 -54.703125 35.875 -54.703125 C 33.957031 -54.703125 32.453125 -54.347656 31.359375 -53.640625 C 30.265625 -52.929688 29.71875 -52.007812 29.71875 -50.875 C 29.71875 -50.1875 29.929688 -49.578125 30.359375 -49.046875 C 30.796875 -48.523438 31.550781 -48.015625 32.625 -47.515625 C 33.695312 -47.015625 34.722656 -46.59375 35.703125 -46.25 C 36.679688 -45.90625 38.140625 -45.398438 40.078125 -44.734375 C 42.023438 -44.078125 43.660156 -43.519531 44.984375 -43.0625 C 48.128906 -41.832031 50.820312 -40.578125 53.0625 -39.296875 C 55.300781 -38.015625 57.378906 -36.492188 59.296875 -34.734375 C 61.210938 -32.984375 62.648438 -30.929688 63.609375 -28.578125 C 64.566406 -26.234375 65.046875 -23.578125 65.046875 -20.609375 C 65.046875 -13.628906 62.335938 -8.117188 56.921875 -4.078125 C 51.515625 -0.0351562 44.363281 1.984375 35.46875 1.984375 Z M 35.46875 1.984375 "/></g></g></g></svg>